<?xml version="1.0" encoding="UTF-8"?>
<svg xmlns="http://www.w3.org/2000/svg" xmlns:xlink="http://www.w3.org/1999/xlink" width="400" height="400" viewBox="0 0 400 400">
<path fill-rule="nonzero" fill="rgb(58.4%, 34.5%, 69.8%)" fill-opacity="1" d="M 275 60.097656 C 280.523438 60.097656 285 64.574219 285 70.097656 C 285 75.617188 280.523438 80.097656 275 80.097656 C 269.476562 80.097656 265 75.617188 265 70.097656 C 265 64.574219 269.476562 60.097656 275 60.097656 Z M 275 60.097656 "/>
<path fill-rule="nonzero" fill="rgb(22%, 59.6%, 14.9%)" fill-opacity="1" d="M 329.902344 113 C 336.53125 113 341.902344 118.371094 341.902344 125 C 341.902344 131.628906 336.53125 137 329.902344 137 C 323.277344 137 317.902344 131.628906 317.902344 125 C 317.902344 118.371094 323.277344 113 329.902344 113 Z M 329.902344 113 "/>
<path fill-rule="nonzero" fill="rgb(79.6%, 23.5%, 20%)" fill-opacity="1" d="M 350 186 C 357.730469 186 364 192.269531 364 200 C 364 207.730469 357.730469 214 350 214 C 342.269531 214 336 207.730469 336 200 C 336 192.269531 342.269531 186 350 186 Z M 350 186 "/>
<path fill-rule="nonzero" fill="rgb(25.1%, 38.8%, 84.7%)" fill-opacity="1" d="M 329.902344 259 C 338.742188 259 345.902344 266.164062 345.902344 275 C 345.902344 283.835938 338.742188 291 329.902344 291 C 321.066406 291 313.902344 283.835938 313.902344 275 C 313.902344 266.164062 321.066406 259 329.902344 259 Z M 329.902344 259 "/>
<path fill-rule="nonzero" fill="rgb(58.4%, 34.5%, 69.8%)" fill-opacity="1" d="M 275 311.902344 C 284.941406 311.902344 293 319.960938 293 329.902344 C 293 339.84375 284.941406 347.902344 275 347.902344 C 265.058594 347.902344 257 339.84375 257 329.902344 C 257 319.960938 265.058594 311.902344 275 311.902344 Z M 275 311.902344 "/>
<path fill-rule="nonzero" fill="rgb(22%, 59.6%, 14.9%)" fill-opacity="1" d="M 200 330 C 211.046875 330 220 338.953125 220 350 C 220 361.046875 211.046875 370 200 370 C 188.953125 370 180 361.046875 180 350 C 180 338.953125 188.953125 330 200 330 Z M 200 330 "/>
<path fill-rule="nonzero" fill="rgb(79.6%, 23.5%, 20%)" fill-opacity="1" d="M 125 307.902344 C 137.148438 307.902344 147 317.753906 147 329.902344 C 147 342.054688 137.148438 351.902344 125 351.902344 C 112.851562 351.902344 103 342.054688 103 329.902344 C 103 317.753906 112.851562 307.902344 125 307.902344 Z M 125 307.902344 "/>
<path fill-rule="nonzero" fill="rgb(25.1%, 38.8%, 84.7%)" fill-opacity="1" d="M 70.097656 251 C 83.351562 251 94.097656 261.746094 94.097656 275 C 94.097656 288.253906 83.351562 299 70.097656 299 C 56.839844 299 46.097656 288.253906 46.097656 275 C 46.097656 261.746094 56.839844 251 70.097656 251 Z M 70.097656 251 "/>
<path fill-rule="nonzero" fill="rgb(58.4%, 34.5%, 69.8%)" fill-opacity="1" d="M 50 174 C 64.359375 174 76 185.640625 76 200 C 76 214.359375 64.359375 226 50 226 C 35.640625 226 24 214.359375 24 200 C 24 185.640625 35.640625 174 50 174 Z M 50 174 "/>
<path fill-rule="nonzero" fill="rgb(22%, 59.6%, 14.9%)" fill-opacity="1" d="M 70.097656 97 C 85.558594 97 98.097656 109.535156 98.097656 125 C 98.097656 140.464844 85.558594 153 70.097656 153 C 54.632812 153 42.097656 140.464844 42.097656 125 C 42.097656 109.535156 54.632812 97 70.097656 97 Z M 70.097656 97 "/>
<path fill-rule="nonzero" fill="rgb(79.6%, 23.5%, 20%)" fill-opacity="1" d="M 125 40.097656 C 141.570312 40.097656 155 53.527344 155 70.097656 C 155 86.664062 141.570312 100.097656 125 100.097656 C 108.429688 100.097656 95 86.664062 95 70.097656 C 95 53.527344 108.429688 40.097656 125 40.097656 Z M 125 40.097656 "/>
<path fill-rule="nonzero" fill="rgb(25.1%, 38.8%, 84.7%)" fill-opacity="1" d="M 200 18 C 217.671875 18 232 32.328125 232 50 C 232 67.671875 217.671875 82 200 82 C 182.328125 82 168 67.671875 168 50 C 168 32.328125 182.328125 18 200 18 Z M 200 18 "/>
</svg>
